
              <svg version="1.1" id="Слой_1" xmlns="http://www.w3.org/2000/svg" xmlns:xlink="http://www.w3.org/1999/xlink" x="0px" y="0px"
                     viewBox="199 1 196 249" width="100%" height="auto" style="enable-background:new 0 0 786 249;" xml:space="preserve">
    <style type="text/css">
        .st0{fill:#FFFFFF;}
        .st1{fill:#878787;}
        .st2{fill:#E51F32;}
        .st3{fill:#C4C4C4;}
        .st4{fill:#161616;}
    </style>
                                           <rect x="199" y="1" class="st4" width="196" height="250"/>
                    <g>
        <path class="st1" d="M277,34c-2-4-0.2,8,1,14.3c3,14.7,9.8,38,15.7,56.8C302,132,321.4,169.6,323,172c2,3,9,0,8-4s-14-26-29-63
            S279,38,277,34z"/>
                        <path class="st2" d="M312.6,128.1 M282.5,137.2c0,0-0.3,0-0.6,0.1c-0.1,0-0.3,0.1-0.5,0.2c-0.3,0.2-0.5,0.5-0.6,0.8
            c-3.7,6.9-8,13.3-13.6,18.8c-5.8,5.7-12.5,9.8-20.3,12.1c-2.8,0.8-5.6,1.5-8.6,1.7c-2,0.1-4-0.1-5.9-0.8c-3.5-1.4-4.8-5.1-3.2-8.9
            c1.5-3.6,4.2-6.3,7.1-8.7c6-5,12.9-8.5,20-11.5c6.7-2.8,13.6-5,20.6-6.7c0.9-0.2,1.5-0.7,1.9-1.6c3.7-7.8,6.7-15.9,9.1-24.2
            c1.1-3.9,2.2-7.9,3.2-11.9c0.1-0.3,0.2-0.6,0.3-0.9c1.2,1.7,2.1,3.6,3.1,5.4c-0.3,0.2-0.3,0.6-0.4,0.9c-2.5,9.9-5.6,19.5-9.8,28.8
            c0,0-0.2,0.3-0.4,0.7c-0.1,0.4-0.2,0.7-0.2,1c3.4-0.7,6.2-1.2,8.1-1.5 M320.4,129.8 M275.5,139.1c-0.5,0.1-0.8,0.1-1,0.1
            c-8.1,2.3-16,5-23.5,8.9c-5.3,2.7-10.4,5.8-14.5,10.1c-1.5,1.6-3,3.3-3.5,5.5c-0.3,1.3,0.1,1.9,1.2,2.5c1.3,0.6,2.7,0.6,4.1,0.5
            c6.5-0.5,12.4-2.8,17.9-6.2c6.1-3.8,10.9-8.9,15-14.8C272.7,143.7,274.1,141.5,275.5,139.1z"/>
                        <g>
            <path class="st0" d="M236.1,198l6.4,13.6H241l-2.1-4.5H233l-2.1,4.5h-1.5l6.4-13.6H236.1z M235.9,200.9l-2.3,4.9h4.7L235.9,200.9z
                "/>
                            <path class="st0" d="M246.6,198h2.7c1.5,0,2.5,0.1,3.1,0.2c0.8,0.2,1.5,0.6,2,1.2c0.5,0.6,0.8,1.4,0.8,2.3c0,0.7-0.2,1.4-0.5,2
                c-0.3,0.6-0.8,1-1.5,1.3s-1.5,0.4-2.7,0.4l4.9,6.3h-1.7l-4.9-6.3h-0.8v6.3h-1.4V198z M247.9,199.3v4.6l2.4,0c0.9,0,1.6-0.1,2-0.3
                c0.4-0.2,0.8-0.5,1-0.8c0.2-0.4,0.4-0.8,0.4-1.3c0-0.5-0.1-0.9-0.4-1.2c-0.2-0.4-0.6-0.6-1-0.8c-0.4-0.2-1.1-0.2-2-0.2H247.9z"/>
                            <path class="st0" d="M258.6,199.3V198h7.5v1.3h-3v12.3h-1.4v-12.3H258.6z"/>
                            <path class="st0" d="M277.1,211.6V198h2.8c2,0,3.5,0.2,4.4,0.5c1.3,0.5,2.4,1.3,3.1,2.4c0.7,1.1,1.1,2.5,1.1,4.1
                c0,1.4-0.3,2.6-0.9,3.6c-0.6,1-1.4,1.8-2.3,2.3c-0.9,0.5-2.3,0.7-4,0.7H277.1z M278.4,210.4h1.6c1.9,0,3.2-0.1,3.9-0.4
                c1-0.3,1.8-0.9,2.4-1.8c0.6-0.9,0.9-1.9,0.9-3.2c0-1.3-0.3-2.4-1-3.4c-0.6-0.9-1.5-1.6-2.7-1.9c-0.9-0.3-2.3-0.4-4.2-0.4h-1V210.4
                z"/>
                            <path class="st0" d="M293.1,198h7.8v1.3h-6.5v4.3h6.4v1.3h-6.4v5.4h6.4v1.3h-7.8V198z"/>
                            <path class="st0" d="M303.8,209.1l1.2-0.7c0.8,1.5,1.8,2.3,2.8,2.3c0.5,0,0.9-0.1,1.3-0.3c0.4-0.2,0.7-0.5,0.9-0.9
                c0.2-0.4,0.3-0.7,0.3-1.1c0-0.5-0.2-0.9-0.5-1.3c-0.4-0.6-1.2-1.3-2.3-2.2c-1.1-0.9-1.8-1.5-2.1-1.9c-0.5-0.6-0.7-1.3-0.7-2.1
                c0-0.6,0.1-1.1,0.4-1.6c0.3-0.5,0.7-0.9,1.2-1.2c0.5-0.3,1.1-0.4,1.7-0.4c0.6,0,1.2,0.2,1.8,0.5c0.6,0.3,1.2,0.9,1.8,1.8l-1.1,0.8
                c-0.5-0.7-1-1.1-1.3-1.3c-0.4-0.2-0.8-0.3-1.2-0.3c-0.6,0-1,0.2-1.3,0.5c-0.3,0.3-0.5,0.7-0.5,1.2c0,0.3,0.1,0.6,0.2,0.9
                c0.1,0.3,0.3,0.6,0.7,0.9c0.2,0.2,0.8,0.6,1.8,1.4c1.2,0.9,2,1.6,2.4,2.3c0.4,0.7,0.7,1.4,0.7,2.1c0,1-0.4,1.8-1.1,2.6
                c-0.8,0.7-1.7,1.1-2.7,1.1c-0.8,0-1.6-0.2-2.3-0.7C305,210.9,304.4,210.1,303.8,209.1z"/>
                            <path class="st0" d="M316.4,198h1.4v13.6h-1.4V198z"/>
                            <path class="st0" d="M335.9,200.3l-1.1,1c-0.8-0.7-1.6-1.3-2.5-1.7c-0.9-0.4-1.8-0.6-2.6-0.6c-1.1,0-2.1,0.3-3.1,0.8
                c-1,0.5-1.7,1.2-2.2,2.1c-0.5,0.9-0.8,1.9-0.8,2.9c0,1,0.3,2,0.8,2.9c0.6,0.9,1.3,1.7,2.3,2.2c1,0.5,2,0.8,3.2,0.8
                c1.4,0,2.6-0.4,3.6-1.2c1-0.8,1.5-1.8,1.7-3.1h-4.4v-1.3h5.9c0,2.1-0.6,3.8-1.9,5c-1.2,1.2-2.9,1.9-5,1.9c-2.5,0-4.5-0.9-6-2.6
                c-1.1-1.3-1.7-2.9-1.7-4.6c0-1.3,0.3-2.5,1-3.6s1.5-2,2.7-2.6c1.1-0.6,2.4-0.9,3.8-0.9c1.2,0,2.2,0.2,3.3,0.6
                C334,198.7,335,199.4,335.9,200.3z"/>
                            <path class="st0" d="M341.2,211.6V198h0.3l9.1,10.5V198h1.3v13.6h-0.3l-9-10.3v10.3H341.2z"/>
        </g>
                        <path class="st1" d="M277,34c-2-4-0.2,8,1,14.3c3,14.7,9.8,38,15.7,56.8C302,132,321.4,169.6,323,172c1.6,2.4,6.2,1,7.7-1.6
            c0.4-0.7,0.5-1.5,0.3-2.4c-1-4-14-26-29-63S279,38,277,34z"/>
                        <g>
            <path class="st3" d="M277,33.4c3.8,11.6,7.6,23.2,11.5,34.8c2,5.8,3.9,11.5,6,17.3c2,5.7,4.2,11.4,6.4,17.1
                c4.5,11.3,9.5,22.4,14.6,33.5l15.4,33.2c0.1,0.3,0,0.5-0.2,0.7c-0.2,0.1-0.5,0-0.7-0.2c-5.8-10.8-11.4-21.6-16.8-32.6
                c-5.4-11-10.5-22.1-15.1-33.5c-4.5-11.4-8.5-23-12.1-34.7c-3.7-11.7-6.9-23.5-10-35.3c-0.1-0.3,0.1-0.5,0.4-0.6
                C276.6,33,276.9,33.1,277,33.4z"/>
        </g>
                        <path class="st2" d="M304.2,132.8c8.5,19.7,17.8,37.6,18.8,39.2c2,3,9,0,8-4c-0.7-2.9-8-15.6-17.7-36.8"/>
                        <path class="st2" d="M282.1,133c0,0,15.5-4,34.9-6c19-2,43-1,39-1c-0.9,0-23.6,3-37.5,4.5c-11.7,1.3-39.5,7.5-39.5,7.5L282.1,133z"
                        />
    </g>
    </svg>